/* XPM */
static char *_dcb6c3a1dae4376bf0503674a7f90e8[] = {
/* columns rows colors chars-per-pixel */
"64 64 8 1 ",
"  c #362030",
". c #BF704D",
"X c #3D253B",
"o c #895A45",
"O c #25131A",
"+ c #90919E",
"@ c #ADC1CF",
"# c #523B40",
/* pixels */
"            ........                        ........            ",
"            ........                        ........            ",
"  XXXXXXXXXX........XXXXXXXXX    XXXXXXXXXXX........XXXXXXXXXX  ",
"  XXXXXXXXXX........XXXXXXXXX    XXXXXXXXXXX........XXXXXXXXXX  ",
"  XXXXXXXXXXooooooooXXXXXXXXX    XXXXXXXXXXXooooooooXXXXXXXXXX  ",
"  XXXXXXXXXXooooooooXXXXXXXXX    XXXXXXXXXXXooooooooXXXXXXXXXX  ",
"  XXXXXXXXXXooooooooXXXXXXXXX    XXXXXXXXXXXooooooooXXXXXXXXXX  ",
"  XXXXXXXXXXooooooooXXXXXXXXX    XXXXXXXXXXXooooooooXXXXXXXXXX  ",
"  XXXXXXXXXXooooooooXXXXXXXXX    XXXXXXXXXXXooooooooXXXXXXXXXX  ",
"  XXXXXXXXXXooooooooXXXXXXXXX    XXXXXXXXXXXooooooooXXXXXXXXXX  ",
"  XXXXXXXXXXooooooooXXXXXXXXX    XXXXXXXXXXXooooooooXXXXXXXXXX  ",
"  XXXXXXXXXXooooooooXXXXXXXXX    XXXXXXXXXXXooooooooXXXXXXXXXX  ",
"OOOOOOOO....++++@@@@........................@@@@++++....OOOOOOOO",
"OOOOOOOO....++++@@@@........................@@@@++++....OOOOOOOO",
"OOOOOOOO....++++@@@@........................@@@@++++....OOOOOOOO",
"OOOOOOOO....++++@@@@........................@@@@++++....OOOOOOOO",
"OOOOOOOOooooooooooooooooooooooooooooooooooooooooooooooooOOOOOOOO",
"OOOOOOOOooooooooooooooooooooooooooooooooooooooooooooooooOOOOOOOO",
"OOOOOOOOooooooooooooooooooooooooooooooooooooooooooooooooOOOOOOOO",
"OOOOOOOOooooooooooooooooooooooooooooooooooooooooooooooooOOOOOOOO",
"OOOOOOOOOOOO########OOOOOOOOOOOOOOOOOOOOOOOO########OOOOOOOOOOOO",
"OOOOOOOOOOOO########OOOOOOOOOOOOOOOOOOOOOOOO########OOOOOOOOOOOO",
"OOOOOOOOOOOO########OOOOOOOOOOOOOOOOOOOOOOOO########OOOOOOOOOOOO",
"OOOOOOOOOOOO########OOOOOOOOOOOOOOOOOOOOOOOO########OOOOOOOOOOOO",
"OOOOOOOOOOOOooooooooOOOOOOOOOOOOOOOOOOOOOOOOooooooooOOOOOOOOOOOO",
"OOOOOOOOOOOOooooooooOOOOOOOOOOOOOOOOOOOOOOOOooooooooOOOOOOOOOOOO",
"OOOOOOOOOOOOooooooooOOOOOOOOOOOOOOOOOOOOOOOOooooooooOOOOOOOOOOOO",
"OOOOOOOOOOOOooooooooOOOOOOOOOOOOOOOOOOOOOOOOooooooooOOOOOOOOOOOO",
"OOOOOOOOOOOOooooooooOOOOOOOOOOOOOOOOOOOOOOOOooooooooOOOOOOOOOOOO",
"OOOOOOOOOOOOooooooooOOOOOOOOOOOOOOOOOOOOOOOOooooooooOOOOOOOOOOOO",
"OOOOOOOOOOOOooooooooOOOOOOOOOOOOOOOOOOOOOOOOooooooooOOOOOOOOOOOO",
"OOOOOOOOOOOOooooooooOOOOOOOOOOOOOOOOOOOOOOOOooooooooOOOOOOOOOOOO",
"OOOOOOOOOOOOooooooooOOOOOOOOOOOOOOOOOOOOOOOOooooooooOOOOOOOOOOOO",
"OOOOOOOOOOOOooooooooOOOOOOOOOOOOOOOOOOOOOOOOooooooooOOOOOOOOOOOO",
"OOOOOOOOOOOOooooooooOOOOOOOOOOOOOOOOOOOOOOOOooooooooOOOOOOOOOOOO",
"OOOOOOOOOOOOooooooooOOOOOOOOOOOOOOOOOOOOOOOOooooooooOOOOOOOOOOOO",
"OOOOOOOOOOOOooooooooOOOOOOOOOOOOOOOOOOOOOOOOooooooooOOOOOOOOOOOO",
"OOOOOOOOOOOOooooooooOOOOOOOOOOOOOOOOOOOOOOOOooooooooOOOOOOOOOOOO",
"OOOOOOOOOOOOooooooooOOOOOOOOOOOOOOOOOOOOOOOOooooooooOOOOOOOOOOOO",
"OOOOOOOOOOOOooooooooOOOOOOOOOOOOOOOOOOOOOOOOooooooooOOOOOOOOOOOO",
"OOOOOOOOOOOOooooooooOOOOOOOOOOOOOOOOOOOOOOOOooooooooOOOOOOOOOOOO",
"OOOOOOOOOOOOooooooooOOOOOOOOOOOOOOOOOOOOOOOOooooooooOOOOOOOOOOOO",
"OOOOOOOOOOOOooooooooOOOOOOOOOOOOOOOOOOOOOOOOooooooooOOOOOOOOOOOO",
"OOOOOOOOOOOOooooooooOOOOOOOOOOOOOOOOOOOOOOOOooooooooOOOOOOOOOOOO",
"OOOOOOOO....++++@@@@........................@@@@++++....OOOOOOOO",
"OOOOOOOO....++++@@@@........................@@@@++++....OOOOOOOO",
"OOOOOOOO....++++@@@@........................@@@@++++....OOOOOOOO",
"OOOOOOOO....++++@@@@........................@@@@++++....OOOOOOOO",
"OOOOOOOOooooooooooooooooooooooooooooooooooooooooooooooooOOOOOOOO",
"OOOOOOOOooooooooooooooooooooooooooooooooooooooooooooooooOOOOOOOO",
"OOOOOOOOooooooooooooooooooooooooooooooooooooooooooooooooOOOOOOOO",
"OOOOOOOOooooooooooooooooooooooooooooooooooooooooooooooooOOOOOOOO",
"OOOOOOOOOOOO########OOOOOOOOOOOOOOOOOOOOOOOO########OOOOOOOOOOOO",
"OOOOOOOOOOOO########OOOOOOOOOOOOOOOOOOOOOOOO########OOOOOOOOOOOO",
"OOOOOOOOOOOO########OOOOOOOOOOOOOOOOOOOOOOOO########OOOOOOOOOOOO",
"OOOOOOOOOOOO########OOOOOOOOOOOOOOOOOOOOOOOO########OOOOOOOOOOOO",
"OOOOOOOOOOOOooooooooOOOOOOOOOOOOOOOOOOOOOOOOooooooooOOOOOOOOOOOO",
"OOOOOOOOOOOOooooooooOOOOOOOOOOOOOOOOOOOOOOOOooooooooOOOOOOOOOOOO",
"OOOOOOOOOOOOooooooooOOOOOOOOOOOOOOOOOOOOOOOOooooooooOOOOOOOOOOOO",
"OOOOOOOOOOOOooooooooOOOOOOOOOOOOOOOOOOOOOOOOooooooooOOOOOOOOOOOO",
"OOOOOOOOOOOOooooooooOOOOOOOOOOOOOOOOOOOOOOOOooooooooOOOOOOOOOOOO",
"OOOOOOOOOOOOooooooooOOOOOOOOOOOOOOOOOOOOOOOOooooooooOOOOOOOOOOOO",
"OOOOOOOOOOOOooooooooOOOOOOOOOOOOOOOOOOOOOOOOooooooooOOOOOOOOOOOO",
"OOOOOOOOOOOOooooooooOOOOOOOOOOOOOOOOOOOOOOOOooooooooOOOOOOOOOOOO"
};
