/* XPM */
static char *bccffb8b396f4327a2269f49492a5730[] = {
/* columns rows colors chars-per-pixel */
"64 64 8 1 ",
"  c #362030",
". c #3D253B",
"X c #25131A",
"o c #ADC1CF",
"O c #90919E",
"+ c #373737",
"@ c #895A45",
"# c #BF704D",
/* pixels */
"                                                                ",
"                                                                ",
"  ...........................    .............................  ",
"  ...........................    .............................  ",
"  ......................XXXXXXXXXXXXXXXXXXXXXXXX..............  ",
"  ......................XXXXXXXXXXXXXXXXXXXXXXXX..............  ",
"  ......................XXXXXXXXXXXXXXXXXXXXXXXX..............  ",
"  ......................XXXXXXXXXXXXXXXXXXXXXXXX..............  ",
"  ..................XXXXooooOOOOOOOOOOOOOOOOOOOOXXXX..........  ",
"  ..................XXXXooooOOOOOOOOOOOOOOOOOOOOXXXX..........  ",
"  ..................XXXXooooOOOOOOOOOOOOOOOOOOOOXXXX..........  ",
"  ..................XXXXooooOOOOOOOOOOOOOOOOOOOOXXXX..........  ",
"  ..............XXXXooooOOOOXXXXXXXXXXXXXXXXXXXXXXXX..........  ",
"  ..............XXXXooooOOOOXXXXXXXXXXXXXXXXXXXXXXXX..........  ",
"  ..............XXXXooooOOOOXXXXXXXXXXXXXXXXXXXXXXXX..........  ",
"  ..............XXXXooooOOOOXXXXXXXXXXXXXXXXXXXXXXXX..........  ",
"  ..............XXXXOOOOOOOOXXXXooooXXXXooooXXXXooooXXXX......  ",
"  ..............XXXXOOOOOOOOXXXXooooXXXXooooXXXXooooXXXX......  ",
"  ..............XXXXOOOOOOOOXXXXooooXXXXooooXXXXooooXXXX......  ",
"  ..............XXXXOOOOOOOOXXXXooooXXXXooooXXXXooooXXXX......  ",
"  ..............XXXXOOOOooooXXXXooooXXXXooooXXXXooooXXXX......  ",
"  ..............XXXXOOOOooooXXXXooooXXXXooooXXXXooooXXXX......  ",
"  ..............XXXXOOOOooooXXXXooooXXXXooooXXXXooooXXXX......  ",
"  ..............XXXXOOOOooooXXXXooooXXXXooooXXXXooooXXXX......  ",
"  ..............XXXXOOOOooooooooooooooooooooooooooooXXXX......  ",
"  ..............XXXXOOOOooooooooooooooooooooooooooooXXXX......  ",
"  ..............XXXXOOOOooooooooooooooooooooooooooooXXXX......  ",
"  ..............XXXXOOOOooooooooooooooooooooooooooooXXXX......  ",
"  ..............XXXXXXXXOOOOOOOOOOOOXXXXXXXXOOOOXXXX..........  ",
"                XXXXXXXXOOOOOOOOOOOOXXXXXXXXOOOOXXXX            ",
"                XXXXXXXXOOOOOOOOOOOOXXXXXXXXOOOOXXXX            ",
"                XXXXXXXXOOOOOOOOOOOOXXXXXXXXOOOOXXXX            ",
"            XXXXXXXX++++XXXXOOOOOOOOOOOOOOOOXXXXXXXXXXXX        ",
"  ..........XXXXXXXX++++XXXXOOOOOOOOOOOOOOOOXXXXXXXXXXXX......  ",
"  ..........XXXXXXXX++++XXXXOOOOOOOOOOOOOOOOXXXXXXXXXXXX......  ",
"  ..........XXXXXXXX++++XXXXOOOOOOOOOOOOOOOOXXXXXXXXXXXX......  ",
"  ......XXXXOOOOooooXXXX++++++++XXXXooooXXXX++++ooooXXXX......  ",
"  ......XXXXOOOOooooXXXX++++++++XXXXooooXXXX++++ooooXXXX......  ",
"  ......XXXXOOOOooooXXXX++++++++XXXXooooXXXX++++ooooXXXX......  ",
"  ......XXXXOOOOooooXXXX++++++++XXXXooooXXXX++++ooooXXXX......  ",
"  ......XXXXOOOOooooXXXX++++XXXXOOOOOOOOoooo++++ooooXXXXXXXX..  ",
"  ......XXXXOOOOooooXXXX++++XXXXOOOOOOOOoooo++++ooooXXXXXXXX..  ",
"  ......XXXXOOOOooooXXXX++++XXXXOOOOOOOOoooo++++ooooXXXXXXXX..  ",
"  ......XXXXOOOOooooXXXX++++XXXXOOOOOOOOoooo++++ooooXXXXXXXX..  ",
"  ......XXXX@@@@XXXXXXXX++++++++XXXXooooXXXX++++XXXX@@@@XXXX..  ",
"  ......XXXX@@@@XXXXXXXX++++++++XXXXooooXXXX++++XXXX@@@@XXXX..  ",
"  ......XXXX@@@@XXXXXXXX++++++++XXXXooooXXXX++++XXXX@@@@XXXX..  ",
"  ......XXXX@@@@XXXXXXXX++++++++XXXXooooXXXX++++XXXX@@@@XXXX..  ",
"  ......XXXXXXXXXXXX++++########XXXXooooXXXX####XXXXXXXXXXXX..  ",
"  ......XXXXXXXXXXXX++++########XXXXooooXXXX####XXXXXXXXXXXX..  ",
"  ......XXXXXXXXXXXX++++########XXXXooooXXXX####XXXXXXXXXXXX..  ",
"  ......XXXXXXXXXXXX++++########XXXXooooXXXX####XXXXXXXXXXXX..  ",
"  ..........XXXX++++++++++++++++++++XXXX++++++++++++XXXX......  ",
"  ..........XXXX++++++++++++++++++++XXXX++++++++++++XXXX......  ",
"  ..........XXXX++++++++++++++++++++XXXX++++++++++++XXXX......  ",
"  ..........XXXX++++++++++++++++++++XXXX++++++++++++XXXX......  ",
"  ..........XXXX++++++++++++++++XXXX@@@@XXXX++++++++XXXX......  ",
"  ..........XXXX++++++++++++++++XXXX@@@@XXXX++++++++XXXX......  ",
"  ..........XXXX++++++++++++++++XXXX@@@@XXXX++++++++XXXX......  ",
"  ..........XXXX++++++++++++++++XXXX@@@@XXXX++++++++XXXX......  ",
"  ...........................    .............................  ",
"  ...........................    .............................  ",
"                                                                ",
"                                                                "
};
